# xmcd
#
# Track frame offsets: 
#        150
#        12767
#        26815
#        38557
#        50947
#        62710
#        76207
#        91142
#        105422
#        118607
#        132065
#        144267
#        156242
#        166717
#        179737
#        191730
#        205602
#        218262
#        232177
#        245247
#        259770
#        272547
#        285777
#        298797
#        311172
#
# Disc length: 4324 seconds
#
# Revision: 1
# Processed by: cddbd v1.5.2PL0 Copyright (c) Steve Scherf et al.
# Submitted via: ExactAudioCopy v1.0b1
#
DISCID=5f10e219
DTITLE=Little Willie Littlefield - Kat On The Keys
DYEAR=1900
DGENRE=R&B
TTITLE0=Ain't A Better Story Told (mono)
TTITLE1=Life Of Trouble (mono)
TTITLE2=You Never Miss A Good Woman Till She's Gone (mono)
TTITLE3=Nakite Stomp (inst) (mono)
TTITLE4=Cheerful Baby (mono)
TTITLE5=Happy Pay Day (mono)
TTITLE6=I've Been Lost (mono)
TTITLE7=Love Me Tonight (mono)
TTITLE8=Trouble Around Me (mono)
TTITLE9=Money Hustlin' Woman (mono)
TTITLE10=Real Fine Mama (mono)
TTITLE11=Too Late For Me (mono)
TTITLE12=Mean Mean Woman (mono)
TTITLE13=Lump In My Throat (Tears In My Eyes) (mono)
TTITLE14=I Like It (mono)
TTITLE15=Your Love Wasn't So (mono)
TTITLE16=Rockin' Chair Mama (mono)
TTITLE17=The Nights Are So Long (mono)
TTITLE18=Hit The Road (mono)
TTITLE19=Train Whistle Blues (mono)
TTITLE20=The Sun Is Shining In Your Front Door (mono)
TTITLE21='Long About Midnight (mono)
TTITLE22=Til We Meet Again (mono)
TTITLE23=Trouble Around Me (alt) (mono)
TTITLE24=It's Midnight (No Place To Go) (mono)
EXTD=
EXTT0=
EXTT1=
EXTT2=
EXTT3=
EXTT4=
EXTT5=
EXTT6=
EXTT7=
EXTT8=
EXTT9=
EXTT10=
EXTT11=
EXTT12=
EXTT13=
EXTT14=
EXTT15=
EXTT16=
EXTT17=
EXTT18=
EXTT19=
EXTT20=
EXTT21=
EXTT22=
EXTT23=
EXTT24=
PLAYORDER=
